<svg xmlns="http://www.w3.org/2000/svg" width="222" height="222" viewBox="0 0 222 222" fill="none"><circle cx="111" cy="111" r="110.58" stroke="#05353D" stroke-width="0.840909"></circle><circle cx="111" cy="111" r="89.9773" fill="#021B1F"></circle><circle cx="111" cy="111" r="68.9545" fill="#022930"></circle><mask id="path-4-outside-1_1_163" maskUnits="userSpaceOnUse" x="94.5" y="77.3408" width="29" height="79" fill="black"><rect fill="white" x="94.5" y="77.3408" width="29" height="79"></rect><path d="M96.5667 92.6128V79.3413H121.361V154.341H106.546V92.6128H96.5667Z"></path></mask><path d="M96.5667 92.6128H95.3842V93.7954H96.5667V92.6128ZM96.5667 79.3413V78.1588H95.3842V79.3413H96.5667ZM121.361 79.3413H122.543V78.1588H121.361V79.3413ZM121.361 154.341V155.523H122.543V154.341H121.361ZM106.546 154.341H105.364V155.523H106.546V154.341ZM106.546 92.6128H107.729V91.4303H106.546V92.6128ZM97.7493 92.6128V79.3413H95.3842V92.6128H97.7493ZM96.5667 80.5238H121.361V78.1588H96.5667V80.5238ZM120.178 79.3413V154.341H122.543V79.3413H120.178ZM121.361 153.158H106.546V155.523H121.361V153.158ZM107.729 154.341V92.6128H105.364V154.341H107.729ZM106.546 91.4303H96.5667V93.7954H106.546V91.4303Z" fill="#00DCAC" mask="url(#path-4-outside-1_1_163)"></path><path d="M96.5667 92.6128V79.3413H121.361V154.341H106.546V92.6128H96.5667Z" fill="url(#paint0_linear_1_163)"></path><defs><linearGradient id="paint0_linear_1_163" x1="111.5" y1="56.3408" x2="111.5" y2="117.841" gradientUnits="userSpaceOnUse"><stop stop-color="#00DCAC"></stop><stop offset="1" stop-color="#046C55" stop-opacity="0.79"></stop></linearGradient></defs></svg>