<svg xmlns="http://www.w3.org/2000/svg" width="222" height="222" viewBox="0 0 222 222" fill="none"><circle cx="111" cy="111" r="110.58" stroke="#05353D" stroke-width="0.840909"></circle><circle cx="111" cy="111" r="89.9773" fill="#021B1F"></circle><circle cx="111" cy="111" r="68.9545" fill="#022930"></circle><mask id="path-4-outside-1_1_174" maskUnits="userSpaceOnUse" x="84.5" y="69" width="55" height="79" fill="black"><rect fill="white" x="84.5" y="69" width="55" height="79"></rect><path d="M91.9416 130.745C98.5259 125.258 103.773 120.697 107.682 117.062C111.592 113.358 114.849 109.517 117.456 105.539C120.062 101.561 121.365 97.6519 121.365 93.8111C121.365 90.3131 120.542 87.5697 118.896 85.5807C117.25 83.5916 114.712 82.5971 111.283 82.5971C107.854 82.5971 105.213 83.7631 103.361 86.0951C101.509 88.3584 100.549 91.4791 100.481 95.4571H86.4889C86.7633 87.2267 89.1981 80.9853 93.7934 76.733C98.4573 72.4806 104.356 70.3544 111.489 70.3544C119.308 70.3544 125.309 72.4463 129.493 76.6301C133.677 80.7453 135.768 86.1979 135.768 92.988C135.768 98.3378 134.328 103.447 131.447 108.317C128.567 113.187 125.275 117.439 121.571 121.074C117.867 124.641 113.032 128.962 107.065 134.037H137.415V145.971H86.5918V135.272L91.9416 130.745Z"></path></mask><path d="M91.9416 130.745L91.1845 129.836L91.1777 129.842L91.9416 130.745ZM107.682 117.062L108.487 117.928L108.495 117.92L107.682 117.062ZM117.456 105.539L118.445 106.187L117.456 105.539ZM118.896 85.5807L117.985 86.3346L118.896 85.5807ZM103.361 86.0951L104.276 86.8439L104.282 86.8372L104.287 86.8304L103.361 86.0951ZM100.481 95.4571V96.6397H101.643L101.663 95.4775L100.481 95.4571ZM86.4889 95.4571L85.307 95.4177L85.2663 96.6397H86.4889V95.4571ZM93.7934 76.733L92.9966 75.8591L92.9902 75.865L93.7934 76.733ZM129.493 76.6301L128.657 77.4663L128.664 77.4732L129.493 76.6301ZM131.447 108.317L132.465 108.919L131.447 108.317ZM121.571 121.074L122.391 121.926L122.399 121.918L121.571 121.074ZM107.065 134.037L106.299 133.136L103.849 135.22H107.065V134.037ZM137.415 134.037H138.597V132.855H137.415V134.037ZM137.415 145.971V147.154H138.597V145.971H137.415ZM86.5918 145.971H85.4093V147.154H86.5918V145.971ZM86.5918 135.272L85.8279 134.369L85.4093 134.723V135.272H86.5918ZM92.6986 131.653C99.2908 126.16 104.556 121.584 108.487 117.928L106.877 116.196C102.99 119.81 97.7609 124.356 91.1845 129.837L92.6986 131.653ZM108.495 117.92C112.463 114.162 115.782 110.251 118.445 106.187L116.467 104.891C113.917 108.783 110.72 112.555 106.869 116.203L108.495 117.92ZM118.445 106.187C121.147 102.063 122.548 97.9316 122.548 93.8111H120.183C120.183 97.3722 118.977 101.06 116.467 104.891L118.445 106.187ZM122.548 93.8111C122.548 90.1355 121.682 87.0925 119.807 84.8267L117.985 86.3346C119.402 88.0469 120.183 90.4907 120.183 93.8111H122.548ZM119.807 84.8267C117.868 82.4837 114.941 81.4146 111.283 81.4146V83.7797C114.483 83.7797 116.632 84.6996 117.985 86.3346L119.807 84.8267ZM111.283 81.4146C107.555 81.4146 104.547 82.7002 102.435 85.3597L104.287 86.8304C105.879 84.826 108.153 83.7797 111.283 83.7797V81.4146ZM102.446 85.3462C100.374 87.8786 99.3698 91.2879 99.2982 95.4367L101.663 95.4775C101.729 91.6703 102.645 88.8382 104.276 86.8439L102.446 85.3462ZM100.481 94.2746H86.4889V96.6397H100.481V94.2746ZM87.6708 95.4965C87.9381 87.4783 90.2994 81.5774 94.5966 77.6009L92.9902 75.865C88.0968 80.3933 85.5885 86.9752 85.307 95.4177L87.6708 95.4965ZM94.5901 77.6068C99.0075 73.5792 104.609 71.5369 111.489 71.5369V69.1719C104.102 69.1719 97.907 71.382 92.9967 75.8591L94.5901 77.6068ZM111.489 71.5369C119.098 71.5369 124.759 73.5686 128.657 77.4663L130.329 75.7939C125.859 71.324 119.517 69.1719 111.489 69.1719V71.5369ZM128.664 77.4732C132.585 81.3308 134.586 86.4609 134.586 92.988H136.951C136.951 85.935 134.768 80.1598 130.322 75.787L128.664 77.4732ZM134.586 92.988C134.586 98.1136 133.209 103.017 130.43 107.715L132.465 108.919C135.447 103.878 136.951 98.5619 136.951 92.988H134.586ZM130.43 107.715C127.597 112.504 124.367 116.673 120.743 120.23L122.399 121.918C126.183 118.205 129.537 113.869 132.465 108.919L130.43 107.715ZM120.751 120.222C117.071 123.766 112.256 128.069 106.299 133.136L107.831 134.938C113.808 129.854 118.664 125.516 122.391 121.926L120.751 120.222ZM107.065 135.22H137.415V132.855H107.065V135.22ZM136.232 134.037V145.971H138.597V134.037H136.232ZM137.415 144.789H86.5918V147.154H137.415V144.789ZM87.7743 145.971V135.272H85.4093V145.971H87.7743ZM87.3556 136.174L92.7054 131.648L91.1777 129.842L85.8279 134.369L87.3556 136.174Z" fill="#00DCAC" mask="url(#path-4-outside-1_1_174)"></path><path d="M91.9416 130.745C98.5259 125.258 103.773 120.697 107.682 117.062C111.592 113.358 114.849 109.517 117.456 105.539C120.062 101.561 121.365 97.6519 121.365 93.8111C121.365 90.3131 120.542 87.5697 118.896 85.5807C117.25 83.5916 114.712 82.5971 111.283 82.5971C107.854 82.5971 105.213 83.7631 103.361 86.0951C101.509 88.3584 100.549 91.4791 100.481 95.4571H86.4889C86.7633 87.2267 89.1981 80.9853 93.7934 76.733C98.4573 72.4806 104.356 70.3544 111.489 70.3544C119.308 70.3544 125.309 72.4463 129.493 76.6301C133.677 80.7453 135.768 86.1979 135.768 92.988C135.768 98.3378 134.328 103.447 131.447 108.317C128.567 113.187 125.275 117.439 121.571 121.074C117.867 124.641 113.032 128.962 107.065 134.037H137.415V145.971H86.5918V135.272L91.9416 130.745Z" fill="url(#paint0_linear_1_174)"></path><defs><linearGradient id="paint0_linear_1_174" x1="111.5" y1="49" x2="111.5" y2="110.5" gradientUnits="userSpaceOnUse"><stop stop-color="#00DCAC"></stop><stop offset="1" stop-color="#046C55" stop-opacity="0.79"></stop></linearGradient></defs></svg>