<svg xmlns="http://www.w3.org/2000/svg" width="222" height="222" viewBox="0 0 222 222" fill="none"><circle cx="111" cy="111" r="110.58" stroke="#05353D" stroke-width="0.840909"></circle><circle cx="111" cy="111" r="89.9773" fill="#021B1F"></circle><circle cx="111" cy="111" r="68.9545" fill="#022930"></circle><mask id="path-4-outside-1_1_185" maskUnits="userSpaceOnUse" x="83" y="69" width="55" height="80" fill="black"><rect fill="white" x="83" y="69" width="55" height="80"></rect><path d="M85.8647 91.7535C86.2077 84.8948 88.6082 79.6136 93.0663 75.9099C97.5931 72.1377 103.526 70.2515 110.865 70.2515C115.871 70.2515 120.158 71.1432 123.725 72.9264C127.291 74.6411 129.966 77.0073 131.749 80.0251C133.601 82.9744 134.527 86.3351 134.527 90.1074C134.527 94.4283 133.395 98.0977 131.132 101.116C128.937 104.065 126.297 106.054 123.21 107.083V107.494C127.188 108.729 130.275 110.923 132.469 114.078C134.733 117.233 135.864 121.28 135.864 126.218C135.864 130.333 134.904 134.003 132.984 137.226C131.132 140.45 128.354 142.988 124.65 144.84C121.015 146.623 116.626 147.514 111.482 147.514C103.732 147.514 97.4216 145.56 92.5519 141.65C87.6823 137.741 85.1103 131.98 84.8359 124.366H98.8276C98.9648 127.727 100.096 130.436 102.223 132.494C104.417 134.483 107.401 135.477 111.173 135.477C114.671 135.477 117.346 134.517 119.198 132.597C121.118 130.608 122.078 128.07 122.078 124.984C122.078 120.868 120.775 117.919 118.169 116.136C115.563 114.353 111.516 113.461 106.029 113.461H103.046V101.63H106.029C115.769 101.63 120.638 98.3721 120.638 91.8563C120.638 88.9071 119.747 86.6094 117.963 84.9634C116.249 83.3173 113.745 82.4943 110.453 82.4943C107.229 82.4943 104.726 83.3859 102.943 85.1691C101.228 86.8838 100.234 89.0786 99.9593 91.7535H85.8647Z"></path></mask><path d="M85.8647 91.7535L84.6837 91.6944L84.6216 92.936H85.8647V91.7535ZM93.0663 75.9099L93.822 76.8195L93.8234 76.8184L93.0663 75.9099ZM123.725 72.9264L123.196 73.9841L123.204 73.9882L123.212 73.9922L123.725 72.9264ZM131.749 80.0251L130.731 80.6267L130.739 80.6405L130.748 80.654L131.749 80.0251ZM131.132 101.116L130.186 100.406L130.183 100.41L131.132 101.116ZM123.21 107.083L122.836 105.961L122.028 106.23V107.083H123.21ZM123.21 107.494H122.028V108.365L122.86 108.623L123.21 107.494ZM132.469 114.078L131.499 114.754L131.504 114.761L131.509 114.768L132.469 114.078ZM132.984 137.226L131.968 136.621L131.963 136.629L131.958 136.637L132.984 137.226ZM124.65 144.84L125.171 145.901L125.179 145.897L124.65 144.84ZM92.5519 141.65L91.8116 142.572L92.5519 141.65ZM84.8359 124.366V123.184H83.61L83.6542 124.409L84.8359 124.366ZM98.8276 124.366L100.009 124.318L99.9629 123.184H98.8276V124.366ZM102.223 132.494L101.4 133.344L101.414 133.357L101.429 133.37L102.223 132.494ZM119.198 132.597L118.347 131.775L118.347 131.776L119.198 132.597ZM103.046 113.461H101.863V114.644H103.046V113.461ZM103.046 101.63V100.447H101.863V101.63H103.046ZM117.963 84.9634L117.144 85.8164L117.153 85.8244L117.161 85.8323L117.963 84.9634ZM102.943 85.1691L103.779 86.0053L103.779 86.0053L102.943 85.1691ZM99.9593 91.7535V92.936H101.027L101.136 91.8741L99.9593 91.7535ZM87.0458 91.8125C87.3755 85.2178 89.6655 80.2726 93.822 76.8195L92.3107 75.0003C87.5509 78.9546 85.0398 84.5717 84.6837 91.6944L87.0458 91.8125ZM93.8234 76.8184C98.0894 73.2633 103.733 71.4341 110.865 71.4341V69.069C103.319 69.069 97.0967 71.012 92.3093 75.0015L93.8234 76.8184ZM110.865 71.4341C115.734 71.4341 119.83 72.3012 123.196 73.9841L124.253 71.8687C120.486 69.9851 116.009 69.069 110.865 69.069V71.4341ZM123.212 73.9922C126.596 75.619 129.082 77.8355 130.731 80.6267L132.767 79.4235C130.85 76.1792 127.986 73.6631 124.237 71.8607L123.212 73.9922ZM130.748 80.654C132.471 83.3991 133.344 86.5383 133.344 90.1074H135.709C135.709 86.1319 134.731 82.5496 132.751 79.3963L130.748 80.654ZM133.344 90.1074C133.344 94.2113 132.274 97.6219 130.186 100.406L132.078 101.825C134.517 98.5735 135.709 94.6454 135.709 90.1074H133.344ZM130.183 100.41C128.113 103.191 125.664 105.018 122.836 105.961L123.584 108.204C126.929 107.089 129.761 104.939 132.081 101.822L130.183 100.41ZM122.028 107.083V107.494H124.393V107.083H122.028ZM122.86 108.623C126.609 109.787 129.467 111.833 131.499 114.754L133.44 113.403C131.082 110.013 127.768 107.67 123.561 106.365L122.86 108.623ZM131.509 114.768C133.593 117.673 134.682 121.46 134.682 126.218H137.047C137.047 121.1 135.873 116.794 133.43 113.389L131.509 114.768ZM134.682 126.218C134.682 130.142 133.769 133.598 131.968 136.621L134 137.832C136.04 134.408 137.047 130.525 137.047 126.218H134.682ZM131.958 136.637C130.235 139.637 127.642 142.022 124.122 143.782L125.179 145.897C129.066 143.954 132.029 141.263 134.009 137.815L131.958 136.637ZM124.13 143.778C120.694 145.463 116.493 146.332 111.482 146.332V148.697C116.759 148.697 121.336 147.782 125.171 145.901L124.13 143.778ZM111.482 146.332C103.934 146.332 97.9053 144.432 93.2922 140.728L91.8116 142.572C96.9378 146.688 103.529 148.697 111.482 148.697V146.332ZM93.2922 140.728C88.7487 137.081 86.2826 131.676 86.0177 124.324L83.6542 124.409C83.9379 132.283 86.6158 138.401 91.8116 142.572L93.2922 140.728ZM84.8359 125.549H98.8276V123.184H84.8359V125.549ZM97.6461 124.415C97.7938 128.034 99.0257 131.046 101.4 133.344L103.045 131.644C101.167 129.827 100.136 127.42 100.009 124.318L97.6461 124.415ZM101.429 133.37C103.895 135.606 107.19 136.66 111.173 136.66V134.295C107.611 134.295 104.939 133.36 103.017 131.618L101.429 133.37ZM111.173 136.66C114.888 136.66 117.911 135.635 120.049 133.418L118.347 131.776C116.781 133.4 114.454 134.295 111.173 134.295V136.66ZM120.049 133.418C122.207 131.182 123.261 128.338 123.261 124.984H120.896C120.896 127.802 120.029 130.033 118.347 131.775L120.049 133.418ZM123.261 124.984C123.261 120.61 121.86 117.229 118.837 115.16L117.501 117.112C119.69 118.61 120.896 121.127 120.896 124.984H123.261ZM118.837 115.16C115.936 113.175 111.599 112.279 106.029 112.279V114.644C111.433 114.644 115.19 115.53 117.501 117.112L118.837 115.16ZM106.029 112.279H103.046V114.644H106.029V112.279ZM104.228 113.461V101.63H101.863V113.461H104.228ZM103.046 102.812H106.029V100.447H103.046V102.812ZM106.029 102.812C110.993 102.812 114.924 101.989 117.643 100.169C120.447 98.2936 121.821 95.4569 121.821 91.8563H119.456C119.456 94.7715 118.394 96.8216 116.328 98.2037C114.178 99.642 110.804 100.447 106.029 100.447V102.812ZM121.821 91.8563C121.821 88.6538 120.842 86.0116 118.765 84.0944L117.161 85.8323C118.651 87.2073 119.456 89.1604 119.456 91.8563H121.821ZM118.782 84.1103C116.774 82.1827 113.931 81.3117 110.453 81.3117V83.6768C113.559 83.6768 115.723 84.4519 117.144 85.8164L118.782 84.1103ZM110.453 81.3117C107.007 81.3117 104.169 82.2707 102.107 84.333L103.779 86.0053C105.283 84.5011 107.452 83.6768 110.453 83.6768V81.3117ZM102.107 84.333C100.179 86.2611 99.0818 88.7187 98.7829 91.6328L101.136 91.8741C101.385 89.4384 102.278 87.5065 103.779 86.0053L102.107 84.333ZM99.9593 90.5709H85.8647V92.936H99.9593V90.5709Z" fill="#00DCAC" mask="url(#path-4-outside-1_1_185)"></path><path d="M85.8647 91.7535C86.2077 84.8948 88.6082 79.6136 93.0663 75.9099C97.5931 72.1377 103.526 70.2515 110.865 70.2515C115.871 70.2515 120.158 71.1432 123.725 72.9264C127.291 74.6411 129.966 77.0073 131.749 80.0251C133.601 82.9744 134.527 86.3351 134.527 90.1074C134.527 94.4283 133.395 98.0977 131.132 101.116C128.937 104.065 126.297 106.054 123.21 107.083V107.494C127.188 108.729 130.275 110.923 132.469 114.078C134.733 117.233 135.864 121.28 135.864 126.218C135.864 130.333 134.904 134.003 132.984 137.226C131.132 140.45 128.354 142.988 124.65 144.84C121.015 146.623 116.626 147.514 111.482 147.514C103.732 147.514 97.4216 145.56 92.5519 141.65C87.6823 137.741 85.1103 131.98 84.8359 124.366H98.8276C98.9648 127.727 100.096 130.436 102.223 132.494C104.417 134.483 107.401 135.477 111.173 135.477C114.671 135.477 117.346 134.517 119.198 132.597C121.118 130.608 122.078 128.07 122.078 124.984C122.078 120.868 120.775 117.919 118.169 116.136C115.563 114.353 111.516 113.461 106.029 113.461H103.046V101.63H106.029C115.769 101.63 120.638 98.3721 120.638 91.8563C120.638 88.9071 119.747 86.6094 117.963 84.9634C116.249 83.3173 113.745 82.4943 110.453 82.4943C107.229 82.4943 104.726 83.3859 102.943 85.1691C101.228 86.8838 100.234 89.0786 99.9593 91.7535H85.8647Z" fill="url(#paint0_linear_1_185)"></path><defs><linearGradient id="paint0_linear_1_185" x1="111" y1="49" x2="111" y2="110.5" gradientUnits="userSpaceOnUse"><stop stop-color="#00DCAC"></stop><stop offset="1" stop-color="#046C55" stop-opacity="0.79"></stop></linearGradient></defs></svg>