<svg xmlns="http://www.w3.org/2000/svg" width="222" height="222" viewBox="0 0 222 222" fill="none"><circle cx="111" cy="111" r="110.58" stroke="#05353D" stroke-width="0.840909"></circle><circle cx="111" cy="111" r="89.9773" fill="#021B1F"></circle><circle cx="111" cy="111" r="68.9545" fill="#022930"></circle><mask id="path-4-outside-1_1_196" maskUnits="userSpaceOnUse" x="78" y="72" width="62" height="78" fill="black"><rect fill="white" x="78" y="72" width="62" height="78"></rect><path d="M79.3267 133.391V122.074L112.968 73.9264H129.738V120.84H138.791V133.391H129.738V148H115.335V133.391H79.3267ZM116.261 89.3584L95.1702 120.84H116.261V89.3584Z"></path></mask><path d="M79.3267 133.391H78.1442V134.574H79.3267V133.391ZM79.3267 122.074L78.3573 121.397L78.1442 121.702V122.074H79.3267ZM112.968 73.9264V72.7439H112.352L111.999 73.2491L112.968 73.9264ZM129.738 73.9264H130.92V72.7439H129.738V73.9264ZM129.738 120.84H128.555V122.022H129.738V120.84ZM138.791 120.84H139.974V119.657H138.791V120.84ZM138.791 133.391V134.574H139.974V133.391H138.791ZM129.738 133.391V132.209H128.555V133.391H129.738ZM129.738 148V149.183H130.92V148H129.738ZM115.335 148H114.152V149.183H115.335V148ZM115.335 133.391H116.517V132.209H115.335V133.391ZM116.261 89.3584H117.443V85.4686L115.278 88.7002L116.261 89.3584ZM95.1702 120.84L94.1878 120.182L92.9546 122.022H95.1702V120.84ZM116.261 120.84V122.022H117.443V120.84H116.261ZM80.5092 133.391V122.074H78.1442V133.391H80.5092ZM80.296 122.752L113.938 74.6037L111.999 73.2491L78.3573 121.397L80.296 122.752ZM112.968 75.1089H129.738V72.7439H112.968V75.1089ZM128.555 73.9264V120.84H130.92V73.9264H128.555ZM129.738 122.022H138.791V119.657H129.738V122.022ZM137.609 120.84V133.391H139.974V120.84H137.609ZM138.791 132.209H129.738V134.574H138.791V132.209ZM128.555 133.391V148H130.92V133.391H128.555ZM129.738 146.817H115.335V149.183H129.738V146.817ZM116.517 148V133.391H114.152V148H116.517ZM115.335 132.209H79.3267V134.574H115.335V132.209ZM115.278 88.7002L94.1878 120.182L96.1527 121.498L117.243 90.0166L115.278 88.7002ZM95.1702 122.022H116.261V119.657H95.1702V122.022ZM117.443 120.84V89.3584H115.078V120.84H117.443Z" fill="#00DCAC" mask="url(#path-4-outside-1_1_196)"></path><path d="M79.3267 133.391V122.074L112.968 73.9264H129.738V120.84H138.791V133.391H129.738V148H115.335V133.391H79.3267ZM116.261 89.3584L95.1702 120.84H116.261V89.3584Z" fill="url(#paint0_linear_1_196)"></path><defs><linearGradient id="paint0_linear_1_196" x1="108.5" y1="50" x2="108.5" y2="111.5" gradientUnits="userSpaceOnUse"><stop stop-color="#00DCAC"></stop><stop offset="1" stop-color="#046C55" stop-opacity="0.79"></stop></linearGradient></defs></svg>