<svg xmlns="http://www.w3.org/2000/svg" width="213" height="86" viewBox="0 0 213 86" fill="none"><rect x="1" y="1" width="211" height="84" rx="5" fill="#02171B"></rect><rect x="0.5" y="0.5" width="212" height="85" rx="5.5" stroke="#00DCAC" stroke-opacity="0.15"></rect><path d="M55.0381 27.6376L52.2452 20.7986V29H50.9101V19.5997H53.1308L55.8419 26.2753L58.5802 19.5997H60.7872V29H59.3159V20.7986L56.5094 27.6376H55.0381ZM66.8893 19.5997H68.9873L72.4477 29H70.9219L69.9955 26.466H65.7177L64.7913 29H63.4289L66.8893 19.5997ZM66.1264 25.3353H69.5868L67.8566 20.5943L66.1264 25.3353ZM74.3841 26.4388H75.869C75.9417 27.0655 76.1733 27.4878 76.5638 27.7058C76.9544 27.9147 77.5447 28.0191 78.3349 28.0191C79.0887 28.0191 79.6518 27.8965 80.0242 27.6513C80.3966 27.406 80.5828 27.0064 80.5828 26.4524C80.5828 25.744 80.2649 25.308 79.6291 25.1445C79.0024 24.9811 78.3122 24.8494 77.5584 24.7495C76.8045 24.6405 76.1097 24.4316 75.4739 24.1228C74.8473 23.8049 74.5339 23.1464 74.5339 22.1474C74.5339 21.2119 74.8473 20.5261 75.4739 20.0902C76.1097 19.6542 77.0089 19.4363 78.1714 19.4363C79.2976 19.4363 80.1786 19.6361 80.8144 20.0357C81.4501 20.4353 81.7998 21.0938 81.8634 22.0111H80.3648C80.3194 21.4571 80.1014 21.0802 79.7109 20.8804C79.3294 20.6805 78.8163 20.5806 78.1714 20.5806C77.4539 20.5806 76.909 20.6987 76.5366 20.9349C76.1642 21.1619 75.978 21.5615 75.978 22.1337C75.978 22.8058 76.2914 23.2191 76.918 23.3735C77.5538 23.5188 78.2486 23.6459 79.0024 23.7549C79.7563 23.8639 80.4465 24.0819 81.0732 24.4089C81.709 24.7267 82.0269 25.3852 82.0269 26.3843C82.0269 27.3561 81.7135 28.0645 81.0869 28.5096C80.4693 28.9455 79.5519 29.1635 78.3349 29.1635C77.0634 29.1635 76.1052 28.9591 75.4603 28.5504C74.8155 28.1417 74.4567 27.4378 74.3841 26.4388ZM87.1769 20.8259H84.0299V19.5997H91.8089V20.8259H88.6482V29H87.1769V20.8259ZM94.5422 19.5997H101.041V20.785H96.0136V23.6187H100.182V24.7767H96.0136V27.8148H101.095V29H94.5422V19.5997ZM104.196 19.5997H108.529C109.528 19.5997 110.282 19.8495 110.79 20.349C111.299 20.8486 111.553 21.5479 111.553 22.4471C111.553 23.1373 111.403 23.7141 111.103 24.1773C110.813 24.6314 110.381 24.9447 109.809 25.1173L111.907 29H110.3L108.297 25.2944H105.668V29H104.196V19.5997ZM110.068 22.665V22.2427C110.068 21.8068 109.936 21.4525 109.673 21.1801C109.41 20.9076 108.983 20.7714 108.392 20.7714H105.668V24.1228H108.392C108.974 24.1228 109.396 23.9865 109.659 23.7141C109.932 23.4325 110.068 23.0828 110.068 22.665ZM114.346 24.2999C114.346 22.547 114.719 21.2981 115.464 20.5534C116.208 19.8086 117.257 19.4363 118.611 19.4363C119.837 19.4363 120.781 19.6724 121.444 20.1447C122.107 20.6079 122.498 21.3663 122.616 22.4198H121.117C121.027 21.7114 120.777 21.2346 120.368 20.9893C119.959 20.7441 119.374 20.6215 118.611 20.6215C117.766 20.6215 117.094 20.8577 116.594 21.3299C116.095 21.7931 115.845 22.5833 115.845 23.7004V24.8448C115.845 25.9438 116.09 26.743 116.581 27.2426C117.08 27.733 117.761 27.9782 118.624 27.9782C119.351 27.9782 119.918 27.8602 120.327 27.624C120.745 27.3879 121.013 26.9292 121.131 26.248H122.63C122.484 27.2834 122.08 28.0282 121.417 28.4823C120.763 28.9364 119.828 29.1635 118.611 29.1635C117.257 29.1635 116.208 28.7911 115.464 28.0464C114.719 27.3016 114.346 26.0528 114.346 24.2999ZM125.633 19.5997H127.105V27.7739H131.968V29H125.633V19.5997ZM137.209 19.5997H139.307L142.767 29H141.241L140.315 26.466H136.037L135.111 29H133.748L137.209 19.5997ZM136.446 25.3353H139.906L138.176 20.5943L136.446 25.3353ZM144.703 26.4388H146.188C146.261 27.0655 146.493 27.4878 146.883 27.7058C147.274 27.9147 147.864 28.0191 148.654 28.0191C149.408 28.0191 149.971 27.8965 150.344 27.6513C150.716 27.406 150.902 27.0064 150.902 26.4524C150.902 25.744 150.584 25.308 149.949 25.1445C149.322 24.9811 148.632 24.8494 147.878 24.7495C147.124 24.6405 146.429 24.4316 145.793 24.1228C145.167 23.8049 144.853 23.1464 144.853 22.1474C144.853 21.2119 145.167 20.5261 145.793 20.0902C146.429 19.6542 147.328 19.4363 148.491 19.4363C149.617 19.4363 150.498 19.6361 151.134 20.0357C151.77 20.4353 152.119 21.0938 152.183 22.0111H150.684C150.639 21.4571 150.421 21.0802 150.03 20.8804C149.649 20.6805 149.136 20.5806 148.491 20.5806C147.773 20.5806 147.228 20.6987 146.856 20.9349C146.484 21.1619 146.297 21.5615 146.297 22.1337C146.297 22.8058 146.611 23.2191 147.237 23.3735C147.873 23.5188 148.568 23.6459 149.322 23.7549C150.076 23.8639 150.766 24.0819 151.393 24.4089C152.028 24.7267 152.346 25.3852 152.346 26.3843C152.346 27.3561 152.033 28.0645 151.406 28.5096C150.789 28.9455 149.871 29.1635 148.654 29.1635C147.383 29.1635 146.425 28.9591 145.78 28.5504C145.135 28.1417 144.776 27.4378 144.703 26.4388ZM154.943 26.4388H156.428C156.501 27.0655 156.732 27.4878 157.123 27.7058C157.513 27.9147 158.104 28.0191 158.894 28.0191C159.648 28.0191 160.211 27.8965 160.583 27.6513C160.955 27.406 161.142 27.0064 161.142 26.4524C161.142 25.744 160.824 25.308 160.188 25.1445C159.561 24.9811 158.871 24.8494 158.117 24.7495C157.363 24.6405 156.669 24.4316 156.033 24.1228C155.406 23.8049 155.093 23.1464 155.093 22.1474C155.093 21.2119 155.406 20.5261 156.033 20.0902C156.669 19.6542 157.568 19.4363 158.73 19.4363C159.856 19.4363 160.737 19.6361 161.373 20.0357C162.009 20.4353 162.359 21.0938 162.422 22.0111H160.924C160.878 21.4571 160.66 21.0802 160.27 20.8804C159.888 20.6805 159.375 20.5806 158.73 20.5806C158.013 20.5806 157.468 20.6987 157.095 20.9349C156.723 21.1619 156.537 21.5615 156.537 22.1337C156.537 22.8058 156.85 23.2191 157.477 23.3735C158.113 23.5188 158.807 23.6459 159.561 23.7549C160.315 23.8639 161.005 24.0819 161.632 24.4089C162.268 24.7267 162.586 25.3852 162.586 26.3843C162.586 27.3561 162.272 28.0645 161.646 28.5096C161.028 28.9455 160.111 29.1635 158.894 29.1635C157.622 29.1635 156.664 28.9591 156.019 28.5504C155.374 28.1417 155.016 27.4378 154.943 26.4388Z" fill="white"></path><path d="M13.8904 45.3544C13.8904 44.4189 14.0403 43.6333 14.34 42.9975C14.6397 42.3617 15.0711 41.8531 15.6342 41.4717C16.1973 41.0811 16.8876 40.8041 17.705 40.6406C18.5224 40.4771 19.4397 40.3954 20.457 40.3954C21.4015 40.3954 22.2598 40.459 23.0318 40.5861C23.8038 40.7042 24.4668 40.9085 25.0209 41.1992C25.5749 41.4898 26.0154 41.8758 26.3423 42.3572C26.6693 42.8385 26.8646 43.4334 26.9282 44.1419H23.604C23.495 43.606 23.1681 43.2609 22.6231 43.1065C22.0872 42.943 21.3652 42.8613 20.457 42.8613C19.9938 42.8613 19.5624 42.884 19.1627 42.9294C18.7631 42.9748 18.418 43.0702 18.1273 43.2155C17.8367 43.3608 17.6096 43.5697 17.4462 43.8422C17.2827 44.1146 17.2009 44.4779 17.2009 44.932V45.7358C17.2009 46.1627 17.2781 46.5124 17.4325 46.7848C17.596 47.0482 17.8231 47.2526 18.1137 47.3979C18.4043 47.5341 18.7495 47.625 19.1491 47.6704C19.5487 47.7158 19.9847 47.7385 20.457 47.7385C21.3107 47.7385 22.0146 47.6658 22.5686 47.5205C23.1226 47.3752 23.4723 47.0755 23.6176 46.6214H26.9418C26.8782 47.2753 26.6784 47.8293 26.3423 48.2834C26.0063 48.7376 25.5613 49.1099 25.0072 49.4006C24.4532 49.6821 23.7902 49.8865 23.0182 50.0136C22.2462 50.1408 21.3924 50.2044 20.457 50.2044C19.4397 50.2044 18.5224 50.1272 17.705 49.9728C16.8876 49.8184 16.1973 49.5595 15.6342 49.1962C15.0711 48.8238 14.6397 48.3243 14.34 47.6976C14.0403 47.0709 13.8904 46.2899 13.8904 45.3544ZM27.7103 40.5997H31.0072V47.3979H37.71V50H27.7103V40.5997ZM38.3809 40.5997H41.6778V50H38.3809V40.5997ZM38.5444 39.6733L41.0783 37.2483H44.3889L41.3781 39.6733H38.5444ZM50.8714 50L46.0351 43.5969V50H43.0379V40.5997H47.5473L52.3837 47.0028V40.5997H55.3808V50H50.8714ZM56.7418 40.5997H60.0387V50H56.7418V40.5997ZM60.9901 45.3544C60.9901 44.4189 61.14 43.6333 61.4397 42.9975C61.7394 42.3617 62.1708 41.8531 62.7339 41.4717C63.2971 41.0811 63.9873 40.8041 64.8047 40.6406C65.6221 40.4771 66.5395 40.3954 67.5567 40.3954C68.5013 40.3954 69.3595 40.459 70.1315 40.5861C70.9035 40.7042 71.5666 40.9085 72.1206 41.1992C72.6746 41.4898 73.1151 41.8758 73.4421 42.3572C73.769 42.8385 73.9643 43.4334 74.0279 44.1419H70.7037C70.5947 43.606 70.2678 43.2609 69.7228 43.1065C69.187 42.943 68.4649 42.8613 67.5567 42.8613C67.0935 42.8613 66.6621 42.884 66.2624 42.9294C65.8628 42.9748 65.5177 43.0702 65.2271 43.2155C64.9364 43.3608 64.7094 43.5697 64.5459 43.8422C64.3824 44.1146 64.3007 44.4779 64.3007 44.932V45.7358C64.3007 46.1627 64.3779 46.5124 64.5323 46.7848C64.6957 47.0482 64.9228 47.2526 65.2134 47.3979C65.5041 47.5341 65.8492 47.625 66.2488 47.6704C66.6485 47.7158 67.0844 47.7385 67.5567 47.7385C68.4104 47.7385 69.1143 47.6658 69.6683 47.5205C70.2224 47.3752 70.572 47.0755 70.7174 46.6214H74.0415C73.9779 47.2753 73.7781 47.8293 73.4421 48.2834C73.106 48.7376 72.661 49.1099 72.107 49.4006C71.5529 49.6821 70.8899 49.8865 70.1179 50.0136C69.3459 50.1408 68.4922 50.2044 67.5567 50.2044C66.5395 50.2044 65.6221 50.1272 64.8047 49.9728C63.9873 49.8184 63.2971 49.5595 62.7339 49.1962C62.1708 48.8238 61.7394 48.3243 61.4397 47.6976C61.14 47.0709 60.9901 46.2899 60.9901 45.3544ZM78.2648 40.5997H82.6243L87.4198 50H84.0276L83.0739 48.1063H77.5155L76.5619 50H73.4421L78.2648 40.5997ZM78.6735 45.8176H81.9295L80.3083 42.6024L78.6735 45.8176ZM90.1775 40.5997H98.3517C99.6232 40.5997 100.563 40.8995 101.172 41.4989C101.78 42.0893 102.085 42.9112 102.085 43.9648C102.085 45.091 101.78 45.9674 101.172 46.5941C100.563 47.2117 99.6232 47.5205 98.3517 47.5205H93.4744V50H90.1775V40.5997ZM98.774 44.1827V43.8694C98.774 43.6423 98.6968 43.4471 98.5424 43.2836C98.3971 43.1201 98.1564 43.0384 97.8204 43.0384H93.4744V45.0819H97.8204C98.1837 45.0819 98.4334 45.0002 98.5697 44.8367C98.7059 44.6732 98.774 44.4552 98.774 44.1827ZM102.844 40.5997H111.195C112.33 40.5997 113.22 40.8677 113.865 41.4035C114.519 41.9303 114.846 42.7069 114.846 43.7332C114.846 44.4779 114.678 45.1001 114.342 45.5996C114.015 46.0991 113.547 46.4624 112.939 46.6895L115.091 50H111.372L109.424 47.0028H106.141V50H102.844V40.5997ZM111.536 43.8422V43.665C111.536 43.4107 111.463 43.2155 111.318 43.0792C111.172 42.943 110.895 42.8749 110.487 42.8749H106.141V44.6732H110.487C110.886 44.6732 111.159 44.6005 111.304 44.4552C111.458 44.3008 111.536 44.0965 111.536 43.8422ZM115.856 40.5997H126.182V42.9839H119.153V44.0738H124.48V46.3489H119.153V47.6023H126.251V50H115.856V40.5997ZM126.25 40.5997H129.805L133.375 47.6976L137.012 40.5997H140.118L135.296 50H131.004L126.25 40.5997ZM140.43 40.5997H143.727V50H140.43V40.5997ZM144.583 46.8666H147.893C148.002 47.3025 148.279 47.5841 148.724 47.7112C149.178 47.8384 149.864 47.902 150.782 47.902C151.726 47.902 152.425 47.852 152.88 47.7521C153.343 47.6431 153.574 47.4433 153.574 47.1527C153.574 46.7621 153.111 46.5623 152.185 46.5532C151.267 46.5351 150.255 46.4851 149.147 46.4034C148.048 46.3216 147.035 46.0946 146.109 45.7222C145.191 45.3407 144.733 44.596 144.733 43.4879C144.733 42.9339 144.864 42.4616 145.128 42.0711C145.4 41.6715 145.786 41.349 146.286 41.1038C146.794 40.8586 147.416 40.6815 148.152 40.5725C148.897 40.4544 149.732 40.3954 150.659 40.3954C152.548 40.3954 153.997 40.6452 155.005 41.1447C156.013 41.6351 156.576 42.4525 156.694 43.5969H153.37C153.279 43.2336 153.002 42.993 152.539 42.8749C152.076 42.7568 151.449 42.6978 150.659 42.6978C149.651 42.6978 148.956 42.7386 148.574 42.8204C148.193 42.9021 148.002 43.0974 148.002 43.4062C148.002 43.7786 148.466 43.9738 149.392 43.992C150.318 44.0102 151.331 44.0601 152.43 44.1419C153.529 44.2236 154.542 44.4461 155.468 44.8094C156.394 45.1636 156.858 45.863 156.858 46.9075C156.858 48.0882 156.367 48.9328 155.386 49.4414C154.414 49.95 152.88 50.2044 150.782 50.2044C149.692 50.2044 148.761 50.1362 147.989 50C147.226 49.8728 146.599 49.673 146.109 49.4006C145.627 49.119 145.264 48.7693 145.019 48.3515C144.774 47.9338 144.628 47.4388 144.583 46.8666ZM157.726 40.5997H161.023V50H157.726V40.5997ZM157.89 39.6733L160.424 37.2483H163.734L160.724 39.6733H157.89ZM161.362 40.5997H164.917L168.487 47.6976L172.124 40.5997H175.23L170.408 50H166.116L161.362 40.5997ZM175.542 40.5997H185.869V42.9839H178.839V44.0738H184.166V46.3489H178.839V47.6023H185.937V50H175.542V40.5997ZM186.957 40.5997H190.254V47.3979H196.957V50H186.957V40.5997ZM46.1849 58.5997H56.5115V60.9839H49.4818V62.0738H54.8086V64.3489H49.4818V65.6023H56.5797V68H46.1849V58.5997ZM60.3949 58.5997H70.7216V60.9839H63.6918V62.0738H69.0186V64.3489H63.6918V65.6023H70.7897V68H60.3949V58.5997ZM71.3064 64.8666H74.6169C74.7259 65.3025 75.0029 65.5841 75.448 65.7112C75.9021 65.8384 76.5878 65.902 77.5051 65.902C78.4497 65.902 79.149 65.852 79.6032 65.7521C80.0664 65.6431 80.298 65.4433 80.298 65.1527C80.298 64.7621 79.8348 64.5623 78.9084 64.5532C77.991 64.5351 76.9784 64.4851 75.8703 64.4034C74.7713 64.3216 73.7587 64.0946 72.8323 63.7222C71.9149 63.3407 71.4563 62.596 71.4563 61.4879C71.4563 60.9339 71.588 60.4616 71.8514 60.0711C72.1238 59.6715 72.5098 59.349 73.0094 59.1038C73.518 58.8586 74.1401 58.6815 74.8758 58.5725C75.6205 58.4544 76.4561 58.3954 77.3825 58.3954C79.2717 58.3954 80.7203 58.6452 81.7284 59.1447C82.7366 59.6351 83.2997 60.4525 83.4178 61.5969H80.0936C80.0028 61.2336 79.7258 60.993 79.2626 60.8749C78.7994 60.7568 78.1727 60.6978 77.3825 60.6978C76.3744 60.6978 75.6796 60.7386 75.2981 60.8204C74.9167 60.9021 74.7259 61.0974 74.7259 61.4062C74.7259 61.7786 75.1891 61.9738 76.1155 61.992C77.0419 62.0102 78.0546 62.0601 79.1536 62.1419C80.2525 62.2236 81.2652 62.4461 82.1916 62.8094C83.118 63.1636 83.5812 63.863 83.5812 64.9075C83.5812 66.0882 83.0908 66.9328 82.1099 67.4414C81.1381 67.95 79.6032 68.2044 77.5051 68.2044C76.4152 68.2044 75.4843 68.1362 74.7123 68C73.9494 67.8728 73.3227 67.673 72.8323 67.4006C72.3509 67.119 71.9876 66.7693 71.7424 66.3515C71.4971 65.9338 71.3518 65.4388 71.3064 64.8666ZM84.0414 63.3544C84.0414 62.4189 84.1912 61.6333 84.4909 60.9975C84.7907 60.3617 85.2221 59.8531 85.7852 59.4717C86.3483 59.0811 87.0385 58.8041 87.856 58.6406C88.6734 58.4771 89.5907 58.3954 90.6079 58.3954C91.5525 58.3954 92.4108 58.459 93.1828 58.5861C93.9548 58.7042 94.6178 58.9085 95.1718 59.1992C95.7258 59.4898 96.1663 59.8758 96.4933 60.3572C96.8203 60.8385 97.0155 61.4334 97.0791 62.1419H93.755C93.646 61.606 93.319 61.2609 92.7741 61.1065C92.2382 60.943 91.5161 60.8613 90.6079 60.8613C90.1447 60.8613 89.7133 60.884 89.3137 60.9294C88.914 60.9748 88.5689 61.0702 88.2783 61.2155C87.9876 61.3608 87.7606 61.5697 87.5971 61.8422C87.4336 62.1146 87.3519 62.4779 87.3519 62.932V63.7358C87.3519 64.1627 87.4291 64.5124 87.5835 64.7848C87.747 65.0482 87.974 65.2526 88.2647 65.3979C88.5553 65.5341 88.9004 65.625 89.3 65.6704C89.6997 65.7158 90.1356 65.7385 90.6079 65.7385C91.4617 65.7385 92.1655 65.6658 92.7196 65.5205C93.2736 65.3752 93.6233 65.0755 93.7686 64.6214H97.0927C97.0291 65.2753 96.8293 65.8293 96.4933 66.2834C96.1572 66.7376 95.7122 67.1099 95.1582 67.4006C94.6042 67.6821 93.9411 67.8865 93.1691 68.0136C92.3971 68.1408 91.5434 68.2044 90.6079 68.2044C89.5907 68.2044 88.6734 68.1272 87.856 67.9728C87.0385 67.8184 86.3483 67.5595 85.7852 67.1962C85.2221 66.8238 84.7907 66.3243 84.4909 65.6976C84.1912 65.0709 84.0414 64.2899 84.0414 63.3544ZM101.316 58.5997H105.676L110.471 68H107.079L106.125 66.1063H100.567L99.6131 68H96.4933L101.316 58.5997ZM101.725 63.8176H104.981L103.36 60.6024L101.725 63.8176ZM110.807 58.5997H114.104V65.3979H120.807V68H110.807V58.5997ZM125.265 58.5997H129.624L134.42 68H131.028L130.074 66.1063H124.515L123.562 68H120.442L125.265 58.5997ZM125.673 63.8176H128.929L127.308 60.6024L125.673 63.8176ZM125.932 57.6733L128.466 55.2483H131.777L128.766 57.6733H125.932ZM131.911 58.5997H135.467L139.036 65.6976L142.674 58.5997H145.78L140.957 68H136.666L131.911 58.5997ZM146.091 58.5997H156.418V60.9839H149.388V62.0738H154.715V64.3489H149.388V65.6023H156.486V68H146.091V58.5997ZM157.507 58.5997H160.804V65.3979H167.507V68H157.507V58.5997Z" fill="#00DCAC"></path></svg>